<svg width="42" height="42" viewBox="0 0 42 42" fill="none" xmlns="http://www.w3.org/2000/svg">
<path d="M23.0833 21.3646V14.75C23.0833 14.1597 22.884 13.6646 22.4854 13.2646C22.0854 12.866 21.5903 12.6667 21 12.6667C20.4097 12.6667 19.9153 12.866 19.5167 13.2646C19.1167 13.6646 18.9167 14.1597 18.9167 14.75V21C18.9167 21.6944 19.0382 22.3368 19.2813 22.9271C19.5243 23.5174 19.8889 24.0556 20.375 24.5417L24.8021 28.9687C25.2188 29.3854 25.7139 29.5937 26.2875 29.5937C26.8597 29.5937 27.3542 29.3854 27.7708 28.9687C28.1528 28.5521 28.3438 28.0576 28.3438 27.4854C28.3438 26.9118 28.1528 26.434 27.7708 26.0521L23.0833 21.3646ZM21 4.33333C20.4097 4.33333 19.9153 4.53264 19.5167 4.93125C19.1167 5.33125 18.9167 5.82639 18.9167 6.41667C18.9167 7.00694 19.1167 7.50208 19.5167 7.90208C19.9153 8.30069 20.4097 8.5 21 8.5C21.5903 8.5 22.0854 8.30069 22.4854 7.90208C22.884 7.50208 23.0833 7.00694 23.0833 6.41667C23.0833 5.82639 22.884 5.33125 22.4854 4.93125C22.0854 4.53264 21.5903 4.33333 21 4.33333ZM37.6667 21C37.6667 20.4097 37.4667 19.9146 37.0667 19.5146C36.6681 19.116 36.1736 18.9167 35.5833 18.9167C34.9931 18.9167 34.4986 19.116 34.1 19.5146C33.7 19.9146 33.5 20.4097 33.5 21C33.5 21.5903 33.7 22.0847 34.1 22.4833C34.4986 22.8833 34.9931 23.0833 35.5833 23.0833C36.1736 23.0833 36.6681 22.8833 37.0667 22.4833C37.4667 22.0847 37.6667 21.5903 37.6667 21ZM21 33.5C20.4097 33.5 19.9153 33.7 19.5167 34.1C19.1167 34.4986 18.9167 34.9931 18.9167 35.5833C18.9167 36.1736 19.1167 36.6681 19.5167 37.0667C19.9153 37.4667 20.4097 37.6667 21 37.6667C21.5903 37.6667 22.0854 37.4667 22.4854 37.0667C22.884 36.6681 23.0833 36.1736 23.0833 35.5833C23.0833 34.9931 22.884 34.4986 22.4854 34.1C22.0854 33.7 21.5903 33.5 21 33.5ZM8.5 21C8.5 20.4097 8.3007 19.9146 7.90209 19.5146C7.50209 19.116 7.00695 18.9167 6.41667 18.9167C5.82639 18.9167 5.33126 19.116 4.93126 19.5146C4.53264 19.9146 4.33334 20.4097 4.33334 21C4.33334 21.5903 4.53264 22.0847 4.93126 22.4833C5.33126 22.8833 5.82639 23.0833 6.41667 23.0833C7.00695 23.0833 7.50209 22.8833 7.90209 22.4833C8.3007 22.0847 8.5 21.5903 8.5 21ZM21 41.8333C18.1181 41.8333 15.4097 41.2861 12.875 40.1917C10.3403 39.0986 8.13542 37.6146 6.26042 35.7396C4.38542 33.8646 2.90139 31.6597 1.80834 29.125C0.713894 26.5903 0.166672 23.8819 0.166672 21C0.166672 18.1181 0.713894 15.4097 1.80834 12.875C2.90139 10.3403 4.38542 8.13542 6.26042 6.26042C8.13542 4.38542 10.3403 2.9007 12.875 1.80625C15.4097 0.713195 18.1181 0.166667 21 0.166667C23.8819 0.166667 26.5903 0.713195 29.125 1.80625C31.6597 2.9007 33.8646 4.38542 35.7396 6.26042C37.6146 8.13542 39.0986 10.3403 40.1917 12.875C41.2861 15.4097 41.8333 18.1181 41.8333 21C41.8333 23.8819 41.2861 26.5903 40.1917 29.125C39.0986 31.6597 37.6146 33.8646 35.7396 35.7396C33.8646 37.6146 31.6597 39.0986 29.125 40.1917C26.5903 41.2861 23.8819 41.8333 21 41.8333Z" fill="white"/>
</svg>
