<svg width="42" height="34" viewBox="0 0 42 34" fill="none" xmlns="http://www.w3.org/2000/svg">
<path d="M37.6667 8.66667L21 19.0833L4.33334 8.66667V4.5L21 14.9167L37.6667 4.5M37.6667 0.333334H4.33334C2.02084 0.333334 0.166672 2.1875 0.166672 4.5V29.5C0.166672 30.6051 0.605658 31.6649 1.38706 32.4463C2.16846 33.2277 3.22827 33.6667 4.33334 33.6667H37.6667C38.7717 33.6667 39.8315 33.2277 40.6129 32.4463C41.3943 31.6649 41.8333 30.6051 41.8333 29.5V4.5C41.8333 3.39493 41.3943 2.33512 40.6129 1.55372C39.8315 0.772321 38.7717 0.333334 37.6667 0.333334V0.333334Z" fill="white"/>
</svg>
