<svg width="18" height="14" viewBox="0 0 18 14" fill="none" xmlns="http://www.w3.org/2000/svg">
<path d="M2.33332 13.6667C1.87499 13.6667 1.48277 13.5036 1.15666 13.1775C0.82999 12.8508 0.666656 12.4583 0.666656 12V2C0.666656 1.54167 0.82999 1.14945 1.15666 0.823336C1.48277 0.496669 1.87499 0.333336 2.33332 0.333336H15.6667C16.125 0.333336 16.5175 0.496669 16.8442 0.823336C17.1703 1.14945 17.3333 1.54167 17.3333 2V12C17.3333 12.4583 17.1703 12.8508 16.8442 13.1775C16.5175 13.5036 16.125 13.6667 15.6667 13.6667H2.33332ZM8.99999 7.6875C9.06943 7.6875 9.14221 7.67695 9.21832 7.65584C9.29499 7.63528 9.36804 7.60417 9.43749 7.5625L15.3333 3.875C15.4444 3.80556 15.5278 3.71889 15.5833 3.615C15.6389 3.51056 15.6667 3.39584 15.6667 3.27084C15.6667 2.99306 15.5486 2.78472 15.3125 2.64584C15.0764 2.50695 14.8333 2.51389 14.5833 2.66667L8.99999 6.16667L3.41666 2.66667C3.16666 2.51389 2.9236 2.51028 2.68749 2.65584C2.45138 2.80195 2.33332 3.00695 2.33332 3.27084C2.33332 3.40972 2.3611 3.53111 2.41666 3.635C2.47221 3.73945 2.55555 3.81945 2.66666 3.875L8.56249 7.5625C8.63193 7.60417 8.70499 7.63528 8.78166 7.65584C8.85777 7.67695 8.93055 7.6875 8.99999 7.6875V7.6875Z" fill="#202C50"/>
</svg>
