<svg width="18" height="18" viewBox="0 0 18 18" fill="none" xmlns="http://www.w3.org/2000/svg">
<path d="M16 9C16 7.05 15.3207 5.39567 13.962 4.037C12.604 2.679 10.95 2 9 2V0C10.25 0 11.421 0.237333 12.513 0.712C13.6043 1.18733 14.5543 1.829 15.363 2.637C16.171 3.44567 16.8127 4.39567 17.288 5.487C17.7627 6.579 18 7.75 18 9H16ZM12 9C12 8.16667 11.7083 7.45833 11.125 6.875C10.5417 6.29167 9.83333 6 9 6V4C10.3833 4 11.5627 4.48733 12.538 5.462C13.5127 6.43733 14 7.61667 14 9H12ZM16.95 18C14.8 18 12.7043 17.525 10.663 16.575C8.621 15.625 6.81267 14.3583 5.238 12.775C3.66267 11.1917 2.396 9.379 1.438 7.337C0.479334 5.29567 0 3.2 0 1.05V0.525C0 0.341667 0.0166666 0.166667 0.05 0H5.9L6.825 5.025L3.975 7.9C4.675 9.1 5.55433 10.225 6.613 11.275C7.671 12.325 8.83333 13.2333 10.1 14L13 11.1L18 12.1V17.95C17.8333 17.9667 17.6583 17.9793 17.475 17.988C17.2917 17.996 17.1167 18 16.95 18ZM3.025 6L4.675 4.35L4.25 2H2.025C2.10833 2.68333 2.225 3.35833 2.375 4.025C2.525 4.69167 2.74167 5.35 3.025 6ZM11.975 14.95C12.625 15.2333 13.2877 15.4583 13.963 15.625C14.6377 15.7917 15.3167 15.9 16 15.95V13.75L13.65 13.275L11.975 14.95Z" fill="white"/>
</svg>
