<svg width="16" height="16" viewBox="0 0 16 16" fill="none" xmlns="http://www.w3.org/2000/svg">
<path d="M13.8333 7.95834C13.8333 6.33334 13.2672 4.95472 12.135 3.8225C11.0033 2.69084 9.625 2.125 8 2.125V0.458336C9.04167 0.458336 10.0175 0.656114 10.9275 1.05167C11.8369 1.44778 12.6286 1.98278 13.3025 2.65667C13.9758 3.33 14.5106 4.12167 14.9067 5.03167C15.3022 5.94111 15.5 6.91667 15.5 7.95834H13.8333ZM10.5 7.95834C10.5 7.26389 10.2569 6.67361 9.77083 6.1875C9.28472 5.70139 8.69444 5.45834 8 5.45834V3.79167C9.15278 3.79167 10.1356 4.19778 10.9483 5.01C11.7606 5.82278 12.1667 6.80556 12.1667 7.95834H10.5ZM14.625 15.5C12.8333 15.5 11.0869 15.1006 9.38583 14.3017C7.68417 13.5033 6.17722 12.4478 4.865 11.135C3.55222 9.82278 2.49667 8.31584 1.69833 6.61417C0.899445 4.91306 0.5 3.16667 0.5 1.375C0.5 1.125 0.583333 0.916669 0.75 0.750002C0.916667 0.583336 1.125 0.500003 1.375 0.500003H4.75C4.94444 0.500003 5.11806 0.562502 5.27083 0.687502C5.42361 0.812502 5.51389 0.972225 5.54167 1.16667L6.08333 4.08334C6.11111 4.27778 6.10778 4.45472 6.07333 4.61417C6.03833 4.77417 5.95833 4.91667 5.83333 5.04167L3.83333 7.08334C4.41667 8.08334 5.14583 9.02084 6.02083 9.89584C6.89583 10.7708 7.86111 11.5278 8.91667 12.1667L10.875 10.2083C11 10.0833 11.1633 9.98945 11.365 9.92667C11.5661 9.86445 11.7639 9.84722 11.9583 9.875L14.8333 10.4583C15.0278 10.5 15.1875 10.5936 15.3125 10.7392C15.4375 10.8853 15.5 11.0556 15.5 11.25V14.625C15.5 14.875 15.4167 15.0833 15.25 15.25C15.0833 15.4167 14.875 15.5 14.625 15.5Z" fill="#202C50"/>
</svg>
