<svg width="38" height="38" viewBox="0 0 38 38" fill="none" xmlns="http://www.w3.org/2000/svg">
<path d="M33.5833 18.8958C33.5833 14.8333 32.1681 11.3868 29.3375 8.55625C26.5083 5.72708 23.0625 4.3125 19 4.3125V0.145834C21.6042 0.145834 24.0437 0.640278 26.3187 1.62917C28.5924 2.61944 30.5715 3.95694 32.2563 5.64167C33.9396 7.325 35.2764 9.30417 36.2667 11.5792C37.2556 13.8528 37.75 16.2917 37.75 18.8958H33.5833ZM25.25 18.8958C25.25 17.1597 24.6424 15.684 23.4271 14.4688C22.2118 13.2535 20.7361 12.6458 19 12.6458V8.47917C21.8819 8.47917 24.3389 9.49444 26.3708 11.525C28.4014 13.5569 29.4167 16.0139 29.4167 18.8958H25.25ZM35.5625 37.75C31.0833 37.75 26.7174 36.7604 22.4646 34.7812C18.2104 32.8021 14.4431 30.1632 11.1625 26.8646C7.88056 23.566 5.24167 19.7896 3.24583 15.5354C1.24861 11.2826 0.25 6.91667 0.25 2.4375V1.34375C0.25 0.961806 0.284722 0.597223 0.354167 0.250001H12.5417L14.4687 10.7187L8.53125 16.7083C9.98958 19.2083 11.8215 21.5521 14.0271 23.7396C16.2312 25.9271 18.6528 27.8194 21.2917 29.4167L27.3333 23.375L37.75 25.4583V37.6458C37.4028 37.6806 37.0382 37.7069 36.6562 37.725C36.2743 37.7417 35.9097 37.75 35.5625 37.75Z" fill="white"/>
</svg>
