<svg width="24" height="24" viewBox="0 0 24 24" fill="none" xmlns="http://www.w3.org/2000/svg">
<path d="M20.8125 2.33906C20.2172 1.79062 17.8078 0.0421871 12.4359 0.0187496C12.4359 0.0187496 6.10313 -0.360938 3.01875 2.47031C1.30313 4.18594 0.698437 6.70312 0.632812 9.82031C0.567187 12.9375 0.4875 18.7781 6.11719 20.3625H6.12188L6.11719 22.7812C6.11719 22.7812 6.07969 23.7609 6.72656 23.9578C7.50469 24.2016 7.96406 23.4562 8.70937 22.6547C9.11719 22.2141 9.67969 21.5672 10.1063 21.075C13.9594 21.3984 16.9172 20.6578 17.2547 20.55C18.0328 20.2969 22.4344 19.7344 23.1469 13.8937C23.8875 7.86562 22.7906 4.05937 20.8125 2.33906V2.33906ZM21.4641 13.4531C20.8594 18.3281 17.2922 18.6375 16.6359 18.8484C16.3547 18.9375 13.7531 19.5844 10.4859 19.3734C10.4859 19.3734 8.04844 22.3125 7.28906 23.0766C7.04062 23.325 6.76875 23.3016 6.77344 22.8094C6.77344 22.4859 6.79219 18.7922 6.79219 18.7922C6.7875 18.7922 6.7875 18.7922 6.79219 18.7922C2.02031 17.4703 2.30156 12.4969 2.35312 9.89531C2.40469 7.29375 2.89687 5.16094 4.35 3.72656C6.96094 1.35937 12.3375 1.71094 12.3375 1.71094C16.8797 1.72969 19.0547 3.09844 19.5609 3.55781C21.2344 4.99219 22.0875 8.42344 21.4641 13.4531V13.4531ZM14.9484 9.66562C14.9672 10.0687 14.3625 10.0969 14.3438 9.69375C14.2922 8.6625 13.8094 8.16094 12.8156 8.10469C12.4125 8.08125 12.45 7.47656 12.8484 7.5C14.1563 7.57031 14.8828 8.32031 14.9484 9.66562ZM15.9 10.1953C15.9469 8.20781 14.7047 6.65156 12.3469 6.47812C11.9484 6.45 11.9906 5.84531 12.3891 5.87344C15.1078 6.07031 16.5563 7.94062 16.5047 10.2094C16.5 10.6125 15.8906 10.5937 15.9 10.1953V10.1953ZM18.1031 10.8234C18.1078 11.2266 17.4984 11.2312 17.4984 10.8281C17.4703 7.00781 14.925 4.92656 11.8359 4.90312C11.4375 4.89844 11.4375 4.29844 11.8359 4.29844C15.2906 4.32187 18.0703 6.70781 18.1031 10.8234V10.8234ZM17.5734 15.4219V15.4312C17.0672 16.3219 16.1203 17.3062 15.1453 16.9922L15.1359 16.9781C14.1469 16.7016 11.8172 15.5016 10.3453 14.3297C9.58594 13.7297 8.89219 13.0219 8.35781 12.3422C7.875 11.7375 7.3875 11.0203 6.91406 10.1578C5.91562 8.35312 5.69531 7.54687 5.69531 7.54687C5.38125 6.57187 6.36094 5.625 7.25625 5.11875H7.26562C7.69687 4.89375 8.10937 4.96875 8.38594 5.30156C8.38594 5.30156 8.96719 5.99531 9.21563 6.3375C9.45 6.65625 9.76406 7.16719 9.92812 7.45312C10.2141 7.96406 10.0359 8.48438 9.75469 8.7L9.19219 9.15C8.90625 9.37969 8.94375 9.80625 8.94375 9.80625C8.94375 9.80625 9.77813 12.9609 12.8953 13.7578C12.8953 13.7578 13.3219 13.7953 13.5516 13.5094L14.0016 12.9469C14.2172 12.6656 14.7375 12.4875 15.2484 12.7734C15.9375 13.1625 16.8141 13.7672 17.3953 14.3156C17.7234 14.5828 17.7984 14.9906 17.5734 15.4219Z" fill="white"/>
</svg>
